<?xml version="1.0" standalone="no"?>
<!DOCTYPE svg PUBLIC "-//W3C//DTD SVG 20010904//EN"
 "http://www.w3.org/TR/2001/REC-SVG-20010904/DTD/svg10.dtd">
<svg version="1.0" xmlns="http://www.w3.org/2000/svg"
 width="512.000000pt" height="512.000000pt" viewBox="0 0 512.000000 512.000000"
 preserveAspectRatio="xMidYMid meet">
<metadata>
Created by potrace 1.16, written by Peter Selinger 2001-2019
</metadata>
<g transform="translate(0.000000,512.000000) scale(0.100000,-0.100000)"
fill="#000000" stroke="none">
<path d="M2240 5105 c-389 -48 -766 -188 -1091 -404 -504 -335 -871 -825
-1043 -1395 -41 -132 -81 -333 -96 -468 -13 -125 -13 -431 0 -556 108 -1014
825 -1880 1804 -2176 132 -41 333 -81 468 -96 125 -13 431 -13 556 0 592 63
1141 332 1563 766 289 299 494 645 613 1038 74 243 106 468 106 746 0 209 -10
324 -46 505 -181 920 -867 1676 -1768 1949 -132 41 -333 81 -468 96 -131 14
-469 11 -598 -5z m75 -1097 c42 -23 81 -66 99 -110 24 -56 24 -1020 0 -1076
-20 -49 -60 -90 -109 -113 -37 -17 -75 -19 -543 -19 -548 0 -544 0 -605 58
-64 60 -62 40 -65 577 -4 564 -3 575 62 640 25 25 59 47 82 53 25 7 215 10
544 9 450 -2 508 -4 535 -19z m0 -1604 c46 -25 65 -45 91 -94 18 -33 19 -66
19 -551 l0 -516 -30 -48 c-20 -32 -45 -56 -75 -72 l-44 -24 -526 3 -526 3 -36
24 c-19 13 -46 40 -59 59 l-24 36 -3 524 c-2 519 -2 525 19 569 24 50 80 92
137 104 20 4 258 6 527 6 480 -2 491 -2 530 -23z m1590 7 c51 -23 101 -79 114
-128 16 -55 15 -979 -1 -1041 -15 -62 -78 -125 -140 -140 -62 -16 -986 -17
-1041 -1 -49 13 -105 63 -128 114 -17 37 -19 78 -19 546 l0 507 28 53 c22 43
38 59 81 81 l53 28 507 0 c468 0 509 -2 546 -19z"/>
<path d="M1687 3733 c-4 -3 -7 -71 -7 -149 l0 -143 -147 -3 -148 -3 -3 -77 -3
-78 151 0 150 0 0 -150 0 -150 80 0 80 0 0 150 0 150 150 0 150 0 0 80 0 80
-150 0 -150 0 0 150 0 150 -73 0 c-41 0 -77 -3 -80 -7z"/>
<path d="M1387 2033 c-4 -3 -7 -42 -7 -85 l0 -78 380 0 380 0 0 85 0 85 -373
0 c-206 0 -377 -3 -380 -7z"/>
<path d="M1380 1570 l0 -80 380 0 380 0 0 80 0 80 -380 0 -380 0 0 -80z"/>
<path d="M3090 2025 l-54 -55 104 -105 105 -105 -105 -105 -105 -105 55 -55
55 -55 105 105 105 105 107 -107 108 -108 57 58 58 57 -108 108 -107 107 105
105 105 105 -55 55 -55 55 -105 -105 -105 -105 -103 103 c-56 56 -105 102
-108 102 -2 0 -29 -25 -59 -55z"/>
</g>
</svg>
